<svg width="20" height="20" viewBox="0 0 20 20" fill="none" xmlns="http://www.w3.org/2000/svg">
<g clip-path="url(#clip0_4093_4885)">
<path d="M10 20C15.5228 20 20 15.5228 20 10C20 4.47715 15.5228 0 10 0C4.47715 0 0 4.47715 0 10C0 15.5228 4.47715 20 10 20Z" fill="#F0F0F0"/>
<path d="M2.06718 3.9118C1.28167 4.9338 0.689365 6.11173 0.344482 7.39137H5.54675L2.06718 3.9118Z" fill="#0052B4"/>
<path d="M19.6556 7.39134C19.3107 6.11173 18.7183 4.9338 17.9329 3.9118L14.4534 7.39134H19.6556Z" fill="#0052B4"/>
<path d="M0.344482 12.6088C0.689404 13.8884 1.28171 15.0663 2.06718 16.0883L5.54663 12.6088H0.344482Z" fill="#0052B4"/>
<path d="M16.0882 2.06722C15.0662 1.28171 13.8883 0.689404 12.6086 0.344482V5.54671L16.0882 2.06722Z" fill="#0052B4"/>
<path d="M3.91187 17.9328C4.93386 18.7183 6.11179 19.3106 7.3914 19.6555V14.4533L3.91187 17.9328Z" fill="#0052B4"/>
<path d="M7.39136 0.344482C6.11175 0.689404 4.93382 1.28171 3.91187 2.06718L7.39136 5.54667V0.344482Z" fill="#0052B4"/>
<path d="M12.6086 19.6555C13.8883 19.3106 15.0662 18.7183 16.0881 17.9328L12.6086 14.4533V19.6555Z" fill="#0052B4"/>
<path d="M14.4534 12.6088L17.9329 16.0883C18.7183 15.0663 19.3107 13.8884 19.6556 12.6088H14.4534Z" fill="#0052B4"/>
<path d="M19.9154 8.69566H11.3044H11.3044V0.0846484C10.8774 0.0290625 10.4421 0 10 0C9.55785 0 9.12262 0.0290625 8.69566 0.0846484V8.69559V8.69563H0.0846484C0.0290625 9.12262 0 9.55793 0 10C0 10.4421 0.0290625 10.8774 0.0846484 11.3043H8.69559H8.69563V19.9154C9.12262 19.9709 9.55785 20 10 20C10.4421 20 10.8774 19.971 11.3043 19.9154V11.3044V11.3044H19.9154C19.9709 10.8774 20 10.4421 20 10C20 9.55793 19.9709 9.12262 19.9154 8.69566Z" fill="#D80027"/>
<path d="M12.6086 12.6087L17.071 17.0711C17.2762 16.8659 17.472 16.6514 17.6588 16.4291L13.8384 12.6087H12.6086V12.6087Z" fill="#D80027"/>
<path d="M7.39134 12.6088H7.39126L2.92896 17.0711C3.13411 17.2763 3.3486 17.4721 3.57095 17.6589L7.39134 13.8384V12.6088Z" fill="#D80027"/>
<path d="M7.39122 7.39136V7.39128L2.92888 2.92889C2.72364 3.13405 2.52786 3.34854 2.34106 3.57089L6.16149 7.39132H7.39122V7.39136Z" fill="#D80027"/>
<path d="M12.6086 7.39138L17.071 2.92896C16.8659 2.72373 16.6514 2.52794 16.429 2.34119L12.6086 6.16162V7.39138Z" fill="#D80027"/>
</g>
<defs>
<clipPath id="clip0_4093_4885">
<rect width="20" height="20" fill="white"/>
</clipPath>
</defs>
</svg>
